<svg id="Layer_1" height="512" viewBox="0 0 64 64" width="512" xmlns="http://www.w3.org/2000/svg" data-name="Layer 1" fill="#087EA4"><path d="m20.85 27.37a1 1 0 0 0 1.34.26 1 1 0 0 0 .26-1.35 5.48 5.48 0 0 0 -7.64-1.55 1 1 0 0 0 1.08 1.61 3.57 3.57 0 0 1 4.96 1.03z"/><path d="m16.66 41.55a3.57 3.57 0 0 1 -2.77-4.24 1 1 0 0 0 -1.89-.31 5.48 5.48 0 0 0 4.31 6.5h.19a1 1 0 0 0 .18-1.92z"/><path d="m22 37.4a1 1 0 1 0 -1.91.29 5.48 5.48 0 0 0 5.4 4.77 5.37 5.37 0 0 0 .8-.05 1 1 0 0 0 .82-1.1 1 1 0 0 0 -1.1-.82 3.58 3.58 0 0 1 -4.01-3.09z"/><path d="m60.35 38.93a3.65 3.65 0 0 0 -3.51 2.68h-3.35l-5.08-5.83a1 1 0 0 0 -.73-.33h-13.53v-1.87-5h13.53a1 1 0 0 0 .73-.33l5.08-5.83h3.35a3.66 3.66 0 1 0 0-1.94h-3.79a1 1 0 0 0 -.73.33l-5.08 5.83h-13.09v-3.64h12.68a.94.94 0 0 0 .73-.34l3.54-4.16a.94.94 0 0 0 .23-.63v-3.87a3.63 3.63 0 1 0 -1.94 0v3.54l-3 3.52h-12.24v-4.64h4.43a1 1 0 0 0 .82-.42l1.24-2a3.75 3.75 0 0 0 1 .16 3.66 3.66 0 1 0 -3.64-3.69 3.59 3.59 0 0 0 1 2.47l-1 1.54h-3.85v-7.37c0-.05 0-.08 0-.12a.76.76 0 0 0 0-.21 8.42 8.42 0 0 0 -8-5.65 8.51 8.51 0 0 0 -7.69 5 8.43 8.43 0 0 0 -10.94 8.04 8 8 0 0 0 .32 2.29 8.47 8.47 0 0 0 -4.84 12.14 7.69 7.69 0 0 0 1.81 13.19 8.45 8.45 0 0 0 6.19 12.91 7.69 7.69 0 0 0 11.18 6.55 7.65 7.65 0 0 0 4.73 1.62 7.75 7.75 0 0 0 7.19-4.95s0 0 0 0a1 1 0 0 0 0-.23.5.5 0 0 0 0-.12v-8h3.9l1 1.54a3.59 3.59 0 0 0 -1 2.47 3.66 3.66 0 1 0 3.66-3.65 3.75 3.75 0 0 0 -1 .16l-1.26-2.09a1 1 0 0 0 -.82-.46h-4.43v-4.54h12.23l3 3.52v3.48a3.68 3.68 0 1 0 1.94 0v-3.9a.94.94 0 0 0 -.23-.63l-3.54-4.14a.94.94 0 0 0 -.73-.34h-12.67v-3.6h13.09l5.08 5.83a1 1 0 0 0 .73.33h3.79a3.65 3.65 0 1 0 3.51-4.62zm0-19.23a1.72 1.72 0 1 1 -1.72 1.72 1.72 1.72 0 0 1 1.72-1.72zm-11.7-9.23a1.72 1.72 0 1 1 1.71 1.71 1.72 1.72 0 0 1 -1.71-1.71zm-7-1.72a1.72 1.72 0 1 1 -1.72 1.72 1.72 1.72 0 0 1 1.73-1.72zm-9.45 6.7v4.55a5.43 5.43 0 0 0 -5.43.35 1 1 0 0 0 -.26 1.35 1 1 0 0 0 1.34.26 3.46 3.46 0 0 1 4.35.38v5.22 4a5.36 5.36 0 0 0 -5.43.36 1 1 0 0 0 1.09 1.61 3.44 3.44 0 0 1 4.34.36v2.46 5.65 6.55 8.79a5.74 5.74 0 0 1 -8.34 2.73 5.42 5.42 0 0 0 1.24-6.47 1 1 0 1 0 -1.73.86 3.56 3.56 0 0 1 -1.69 4.77 1.2 1.2 0 0 0 -.21.17 5.73 5.73 0 0 1 -8.56-4.85c1.7-.49 4.91-1.72 5.38-4.14a1 1 0 0 0 -.77-1.14 1 1 0 0 0 -1.12.73c-.29 1.44-3.31 2.51-4.51 2.77a6.5 6.5 0 0 1 -4.74-10.85 1 1 0 0 0 .21-1 1 1 0 0 0 -.74-.64 5.75 5.75 0 0 1 -1.84-10.58 3.55 3.55 0 0 1 4.95 1 1 1 0 0 0 .8.42 1 1 0 0 0 .55-.17 1 1 0 0 0 .25-1.35 5.49 5.49 0 0 0 -6.75-2 6.47 6.47 0 0 1 4-9.3 4.3 4.3 0 0 0 3.65 2.07 4.18 4.18 0 0 0 1.47-.26 1 1 0 1 0 -.66-1.82 2.37 2.37 0 0 1 -3-1.44.36.36 0 0 0 0-.09 6.49 6.49 0 0 1 8.64-8.48h.1.1c2.77.54 3.59 3.08 3.16 5.35a1 1 0 0 0 .77 1.13h.18a1 1 0 0 0 1-.79c.63-3.38-.82-6.22-3.58-7.29a6.54 6.54 0 0 1 5.83-3.66 6.46 6.46 0 0 1 6.07 4.22zm9.45 36.37a1.72 1.72 0 1 1 -1.72 1.71 1.72 1.72 0 0 1 1.73-1.71zm10.42 1.71a1.72 1.72 0 1 1 -1.72-1.71 1.72 1.72 0 0 1 1.73 1.71zm8.27-9.23a1.72 1.72 0 1 1 1.71-1.72 1.72 1.72 0 0 1 -1.7 1.72z"/></svg>